HIERARCHY
ROOT SpineBase
{
  OFFSET 0.000000 0.000000 0.000000
  CHANNELS 6 Xposition Yposition Zposition Zrotation Xrotation Yrotation
  JOINT SpineMid
  {
    OFFSET -0.000000 30.919729 -0.000000
    CHANNELS 3 Zrotation Xrotation Yrotation
    JOINT SpineShoulder
    {
      OFFSET -0.036915 23.025214 -0.793425
      CHANNELS 3 Zrotation Xrotation Yrotation
      JOINT Neck
      {
        OFFSET -0.043125 7.641842 -0.599426
        CHANNELS 3 Zrotation Xrotation Yrotation
        JOINT Head
        {
          OFFSET -1.291186 12.113921 0.589593
          CHANNELS 3 Zrotation Xrotation Yrotation
          End Site
          {
            OFFSET 0 0 0
          }
        }
      }
      JOINT ShoulderLeft
      {
        OFFSET -18.373406 -3.280866 4.670464
        CHANNELS 3 Zrotation Xrotation Yrotation
        JOINT ElbowLeft
        {
          OFFSET -1.877733 -27.288881 -1.191262
          CHANNELS 3 Zrotation Xrotation Yrotation
          JOINT WristLeft
          {
            OFFSET 1.469447 -20.401029 -9.389475
            CHANNELS 3 Zrotation Xrotation Yrotation
            JOINT HandLeft
            {
              OFFSET 2.823150 -5.428912 -1.368541
              CHANNELS 3 Zrotation Xrotation Yrotation
              JOINT HandTipLeft
              {
                OFFSET 1.972062 -5.139176 -1.690004
                CHANNELS 3 Zrotation Xrotation Yrotation
                End Site
                {
                  OFFSET 0 0 0
                }
              }
              JOINT ThumbLeft
              {
                OFFSET 2.572557 2.697921 -2.257162
                CHANNELS 3 Zrotation Xrotation Yrotation
                End Site
                {
                  OFFSET 0 0 0
                }
              }
            }
          }
        }
      }
      JOINT ShoulderRight
      {
        OFFSET 15.796054 -2.074056 -5.114985
        CHANNELS 3 Zrotation Xrotation Yrotation
        JOINT ElbowRight
        {
          OFFSET 4.723060 -24.800448 -0.153684
          CHANNELS 3 Zrotation Xrotation Yrotation
          JOINT WristRight
          {
            OFFSET -4.380463 -20.526281 -8.064170
            CHANNELS 3 Zrotation Xrotation Yrotation
            JOINT HandRight
            {
              OFFSET -3.677750 -5.486689 -0.722910
              CHANNELS 3 Zrotation Xrotation Yrotation
              JOINT HandTipRight
              {
                OFFSET -0.539175 -4.001603 0.777610
                CHANNELS 3 Zrotation Xrotation Yrotation
                End Site
                {
                  OFFSET 0 0 0
                }
              }
              JOINT ThumbRight
              {
                OFFSET 2.523223 -1.171296 -0.438957
                CHANNELS 3 Zrotation Xrotation Yrotation
                End Site
                {
                  OFFSET 0 0 0
                }
              }
            }
          }
        }
      }
    }
  }
  JOINT HipLeft
  {
    OFFSET -6.615341 0.876807 -1.652619
    CHANNELS 3 Zrotation Xrotation Yrotation
    JOINT KneeLeft
    {
      OFFSET -6.445133 -26.650946 -2.514624
      CHANNELS 3 Zrotation Xrotation Yrotation
      JOINT AnkleLeft
      {
        OFFSET -1.884368 -34.002478 3.437316
        CHANNELS 3 Zrotation Xrotation Yrotation
        JOINT FootLeft
        {
          OFFSET -3.018774 -2.453700 -13.594096
          CHANNELS 3 Zrotation Xrotation Yrotation
          End Site
          {
            OFFSET 0 0 0
          }
        }
      }
    }
  }
  JOINT HipRight
  {
    OFFSET 5.869174 1.421912 -5.536154
    CHANNELS 3 Zrotation Xrotation Yrotation
    JOINT KneeRight
    {
      OFFSET 7.261313 -24.185988 -2.523493
      CHANNELS 3 Zrotation Xrotation Yrotation
      JOINT AnkleRight
      {
        OFFSET 2.455018 -37.412669 12.814889
        CHANNELS 3 Zrotation Xrotation Yrotation
        JOINT FootRight
        {
          OFFSET -2.661528 -4.098261 -10.950652
          CHANNELS 3 Zrotation Xrotation Yrotation
          End Site
          {
            OFFSET 0 0 0
          }
        }
      }
    }
  }
}
MOTION
Frames: 10
Frame Time: 0.033333
32.865418 64.253665 333.334256 1.523312 -6.835442 9.980137 0.143661 -0.733146 -9.845622 0.046000 -0.466530 0.053075 2.276827 0.416747 -1.280911 0.000000 0.000000 0.000000 2.902514 10.109410 -1.066442 17.918820 25.341164 -11.576518 -17.367202 2.499486 17.344528 8.991417 10.982434 -1.741085 0.000000 0.000000 0.000000 0.000000 0.000000 0.000000 -8.957534 15.696074 3.043598 -55.584210 0.954295 17.320911 7.552617 -59.844618 -13.220424 -59.242034 55.739785 19.920444 0.000000 0.000000 0.000000 0.000000 0.000000 0.000000 -12.688142 25.467563 -8.912126 14.947303 -21.957753 4.760786 2.409012 3.508304 -5.270670 0.000000 0.000000 0.000000 6.088649 13.213994 -9.378902 -3.868155 -5.943875 -1.224369 -1.231626 5.937076 -4.797330 0.000000 0.000000 0.000000
31.254993 62.580140 333.361944 2.466274 -8.525150 5.564736 0.340538 -0.565845 -5.313736 0.038124 -0.322060 0.093929 1.279918 1.135048 -1.400741 0.000000 0.000000 0.000000 5.971585 11.512963 -2.080074 15.034667 24.439822 -12.069151 -20.373693 -0.456465 16.235537 5.823955 10.371265 -1.023891 0.000000 0.000000 0.000000 0.000000 0.000000 0.000000 -7.819812 14.950513 2.215720 -58.719749 0.139435 19.284644 12.454333 -55.061539 -12.142894 -39.652556 50.043713 2.187360 0.000000 0.000000 0.000000 0.000000 0.000000 0.000000 -21.230917 28.147832 -1.478925 19.000056 -24.250105 5.255521 4.198714 3.392947 -7.913997 0.000000 0.000000 0.000000 7.422806 18.702888 -5.014845 -5.274188 -9.501804 -1.598518 -1.519572 5.398107 -7.663084 0.000000 0.000000 0.000000
29.076889 61.071176 333.260397 3.940551 -10.317215 0.937168 0.233090 -0.381537 -0.463641 -0.016025 -0.153081 0.142388 0.976747 2.269312 -1.617379 0.000000 0.000000 0.000000 8.891004 13.143332 -3.322545 10.762430 23.646732 -11.679723 -23.018273 -3.072739 14.994144 10.334429 10.812508 -0.786839 0.000000 0.000000 0.000000 0.000000 0.000000 0.000000 -5.514442 12.933545 0.823125 -62.348138 1.618681 22.907971 10.850458 -47.291474 -14.104006 -43.625541 58.852622 12.022921 0.000000 0.000000 0.000000 0.000000 0.000000 0.000000 -30.113941 28.651303 6.330518 21.841180 -25.282529 5.313580 6.153400 2.621853 -10.760912 0.000000 0.000000 0.000000 6.664237 22.444996 -0.608276 -5.418190 -10.680897 -0.965539 -2.669682 5.990368 -10.544252 0.000000 0.000000 0.000000
26.605876 60.090475 333.065536 5.542592 -11.983918 -3.520660 -0.005756 -0.137733 4.279369 -0.066840 0.032638 0.189366 1.206406 3.573128 -1.910964 0.000000 0.000000 0.000000 11.029777 14.497749 -4.486212 6.042927 22.606757 -10.590218 -23.022628 -2.800313 14.736713 11.903086 11.345545 -0.630571 0.000000 0.000000 0.000000 0.000000 0.000000 0.000000 -2.993386 10.668284 -0.542664 -66.285041 3.275950 26.617919 3.761898 -48.401407 -16.831260 -55.124946 75.295871 34.866024 0.000000 0.000000 0.000000 0.000000 0.000000 0.000000 -37.679183 27.292911 13.181853 23.358081 -25.212586 4.996744 8.023225 1.359563 -13.480421 0.000000 0.000000 0.000000 4.509372 24.079514 3.729282 -4.400165 -10.124392 0.385542 -3.254009 3.186922 -14.480596 0.000000 0.000000 0.000000
24.113679 59.661451 332.925453 7.154375 -13.689449 -7.879694 -0.044947 -0.151460 8.974049 -0.051394 -0.078080 0.253897 1.338658 5.686443 -2.301683 0.000000 0.000000 0.000000 12.208680 16.177247 -5.649537 3.083616 23.305407 -10.312014 -20.811758 -1.716871 15.222713 10.116531 9.992076 -1.123602 0.000000 0.000000 0.000000 0.000000 0.000000 0.000000 -3.104250 10.635119 -1.079522 -67.580576 4.155920 28.486259 14.361756 -40.524215 -13.860386 -36.735888 68.867298 15.186413 0.000000 0.000000 0.000000 0.000000 0.000000 0.000000 -44.426703 25.837677 19.327586 25.206024 -25.898587 5.389166 8.972123 0.185972 -15.833532 0.000000 0.000000 0.000000 1.652492 23.886385 8.013193 -2.713257 -7.448875 2.059584 -4.517090 1.490563 -17.467694 0.000000 0.000000 0.000000
21.866756 59.824124 333.006472 8.310510 -15.318816 -10.463955 -0.018477 0.052999 11.836000 0.002966 -0.171490 0.302985 2.756702 7.237039 -2.989547 0.000000 0.000000 0.000000 13.090260 18.746280 -6.948010 1.054726 21.631568 -9.802356 -20.758856 -1.281268 15.324322 10.280104 9.994554 -1.142443 0.000000 0.000000 0.000000 0.000000 0.000000 0.000000 -3.416060 11.250916 -1.367276 -67.506793 4.219564 28.897444 26.334823 -30.450482 -12.411776 -27.631056 47.643403 -0.195311 0.000000 0.000000 0.000000 0.000000 0.000000 0.000000 -46.702082 24.975303 22.504950 24.366331 -25.342317 5.198060 9.475133 -1.172200 -17.624767 0.000000 0.000000 0.000000 -1.042197 21.627825 10.493214 0.189640 -2.529054 3.764357 -5.616614 -2.381063 -20.798440 0.000000 0.000000 0.000000
19.999372 60.293124 333.338952 9.661054 -17.232062 -10.972767 -0.027413 0.012138 12.737784 -0.131791 -0.050401 0.351512 4.088569 9.852738 -3.783726 0.000000 0.000000 0.000000 13.163752 21.204599 -7.990035 0.384949 20.926944 -9.720831 -20.967979 -1.387778 15.338134 10.380548 9.970934 -1.160872 0.000000 0.000000 0.000000 0.000000 0.000000 0.000000 -4.654103 12.463544 -1.356566 -67.100106 4.508331 29.416279 37.894081 -25.304282 -11.803635 -19.316701 24.209947 -7.157247 0.000000 0.000000 0.000000 0.000000 0.000000 0.000000 -46.216824 25.800409 23.453690 21.493081 -24.274385 4.630850 9.629049 -2.579408 -18.401190 0.000000 0.000000 0.000000 -3.396991 18.943768 10.877922 2.988528 3.386570 4.987807 -6.647559 -7.798012 -23.613653 0.000000 0.000000 0.000000
18.347573 60.521475 333.792073 10.751399 -18.981895 -10.198740 -0.290582 0.089864 12.351731 -0.162547 -0.083127 0.384876 6.119091 11.563605 -4.805561 0.000000 0.000000 0.000000 13.552506 23.090845 -8.921864 -0.445718 20.444283 -9.603265 -20.972802 -1.286436 15.365220 10.464483 9.976776 -1.169270 0.000000 0.000000 0.000000 0.000000 0.000000 0.000000 -5.785130 13.119136 -1.318786 -66.171691 4.770461 30.129514 48.154142 -22.921094 -11.012021 -5.370278 -9.635037 -4.998228 0.000000 0.000000 0.000000 0.000000 0.000000 0.000000 -45.805176 27.954109 23.551465 19.274061 -24.079710 4.399716 9.802423 -3.642102 -19.152132 0.000000 0.000000 0.000000 -4.713956 16.172357 9.756950 4.668789 9.259265 5.712624 -6.974448 -17.249460 -26.770141 0.000000 0.000000 0.000000
17.294359 60.693992 334.308292 11.374607 -20.191395 -8.453686 -0.608139 0.209564 10.882607 -0.130703 -0.121728 0.393185 8.154815 12.197148 -5.714987 0.000000 0.000000 0.000000 13.538110 24.179923 -9.330520 -0.575438 20.250655 -9.564484 -20.971668 -1.143299 15.402080 10.506359 9.987980 -1.171212 0.000000 0.000000 0.000000 0.000000 0.000000 0.000000 -6.227080 13.317774 -1.360711 -65.728317 5.017086 30.830068 51.459712 -21.055766 -11.407279 13.155046 -34.317847 6.831613 0.000000 0.000000 0.000000 0.000000 0.000000 0.000000 -44.075426 30.840691 22.238399 16.927573 -24.320331 4.246709 9.891296 -4.197900 -19.535674 0.000000 0.000000 0.000000 -5.542375 14.415503 7.881058 6.394469 13.595332 6.078918 -7.998358 -21.313466 -28.151910 0.000000 0.000000 0.000000
16.816547 60.790215 334.919001 11.656958 -20.926250 -6.216296 -0.815211 0.308619 8.804715 -0.011295 -0.231638 0.389803 9.737873 12.556811 -6.422826 0.000000 0.000000 0.000000 12.529339 24.993628 -9.160003 0.270718 20.111616 -9.537881 -20.969616 -0.959510 15.449340 10.555253 10.002417 -1.173130 0.000000 0.000000 0.000000 0.000000 0.000000 0.000000 -6.321466 13.627478 -1.411230 -66.088244 5.182425 31.394528 51.740853 -17.827776 -13.194509 27.904690 -41.010268 17.901221 0.000000 0.000000 0.000000 0.000000 0.000000 0.000000 -43.078484 34.026893 20.648559 15.608457 -25.101062 4.276207 10.333225 -4.726834 -19.686506 0.000000 0.000000 0.000000 -5.375833 13.493190 5.382070 6.261667 16.202271 6.178216 -7.717025 -28.979934 -29.821894 0.000000 0.000000 0.000000
